<svg version="1.0" xmlns="http://www.w3.org/2000/svg" width="1024.000000pt" height="1024.000000pt" viewBox="0 0 780 780" preserveAspectRatio="xMidYMid meet" xmlns:bx="https://boxy-svg.com">
  <defs>
    <bx:export>
      <bx:file format="png" href="#object-0" path="Senza titolo.png"></bx:file>
      <bx:file format="svg" href="#object-0" path="Senza titolo.svg" units="pt"></bx:file>
    </bx:export>
  </defs>
  <g transform="matrix(1, 0, 0, 1, -127, 4)">
    <g transform="matrix(1, 0, 0, 1, 251.385239, 0)">
      <polygon style="stroke: rgb(0, 0, 0); stroke-width: 0px; fill: rgb(74, 191, 255);" points="240.791 120.158 301.972 119.826 303.634 158.729 373.461 161.056 373.128 364.369 171.962 367.029 169.302 162.87 240.126 159.213"></polygon>
      <g transform="matrix(0.1, 0, 0, -0.1, -242, 968)" fill="" stroke="" id="object-0">
        <path d="M 4880 9670 C 4032 9587 3317 9157 2854 8450 C 2567 8011 2419 7503 2420 6952 C 2420 6650 2455 6427 2546 6149 C 2676 5753 2913 5375 3242 5038 C 3389 4888 3447 4863 3540 4910 C 3604 4942 3630 5000 3615 5077 C 3610 5108 3584 5139 3476 5250 C 3224 5507 3091 5690 2964 5955 C 2860 6172 2799 6360 2754 6605 C 2732 6725 2724 7074 2740 7211 C 2791 7658 2953 8064 3218 8414 C 3432 8697 3774 8969 4098 9115 C 4759 9414 5480 9414 6125 9116 C 6381 8997 6600 8839 6815 8618 C 7011 8418 7131 8245 7261 7975 C 7433 7617 7500 7329 7500 6945 C 7500 6570 7431 6276 7260 5925 C 7001 5394 6522 4958 5985 4766 C 5854 4719 5840 4711 5813 4671 C 5796 4646 5790 4623 5790 4581 C 5790 4507 5821 4459 5884 4435 C 5927 4418 5931 4418 6002 4439 C 6255 4514 6514 4652 6770 4849 C 6871 4926 7131 5184 7218 5292 C 7483 5624 7670 6008 7754 6395 C 7908 7108 7760 7839 7331 8480 C 7228 8634 7136 8745 7005 8874 C 6504 9367 5826 9657 5135 9674 C 5042 9677 4927 9675 4880 9670 Z" style="stroke-width: 0px; fill: rgb(31, 83, 112); transform-origin: 5116.62px 7049.06px 0px;" transform="matrix(0.926306, -0.376771, 0.376771, 0.926306, 0, 0)"></path>
        <path d="M 4900 8601 C 4823 8585 4775 8545 4741 8470 C 4724 8433 4720 8404 4720 8303 L 4720 8180 L 4476 8180 C 4476.7 8180 4155.06 8175.1 4154.3 8175.1 C 4024.27 8175.28 4040 8012 4040 8012 L 4040 7051 C 4040 7050.07 4036.47 6007.42 4036.47 6006.14 C 4036.26 5937.52 4086.14 5911.41 4175 5911.63 C 4175.55 5911.63 5137.39 5907.27 5137.58 5908.37 C 5137.62 5908.6 6128.6 5914.03 6128.8 5914.03 C 6215.17 5912.12 6229.71 5963.53 6232.85 6045.17 L 6232 7035 C 6234 7893 6232.46 8032.3 6232.47 8033.21 C 6233.28 8134.7 6214.08 8178.04 6113.03 8176.73 C 6110.9 8176.7 5798.71 8177.56 5798 8178 L 5530 8181 L 5530 8298 C 5530 8436 5520 8478 5477 8527 C 5416 8597 5382 8605 5145 8607 C 5030 8608 4919 8605 4900 8601 Z M 5298 8420 C 5343.12 8419.96 5349.19 8412.08 5350 8358 L 5350 8163 L 5350 7970.7 C 5351.37 7919.63 5342.84 7911.54 5300.65 7911.13 L 5126 7910 C 5125.77 7910 4950.69 7909.81 4950.06 7910.73 C 4903.78 7909.73 4904.96 7917.38 4905 7958 L 4902 8162 C 4902.69 8163.27 4904.6 8358.91 4904.49 8360.43 C 4901.93 8395.24 4908.08 8418.7 4941 8420 L 5120 8420 L 5298 8420 Z M 4710.48 8003.49 C 4705.9 7744.6 4782.72 7735.39 4905.43 7735.08 C 4905.68 7734.37 5339 7731 5356 7735 C 5478.33 7740.14 5540.56 7746.84 5541.7 8004.65 C 5541.9 8003.83 5983.17 8003.71 5983.98 8003.73 C 6058.44 8005.54 6060.89 7972.49 6060 7937.25 L 6060 7045 L 6060 6138 C 6063.19 6101.97 6047.08 6081.85 6002 6080 L 5136 6080 L 4271 6080 C 4232.25 6080.28 4215.39 6089.33 4215 6128 L 4212 7033 L 4210 7938 C 4210.15 7978.83 4223.57 8005.51 4283 8002 C 4283.56 8001.97 4710.5 8004.41 4710.48 8003.49 Z" style="stroke-width: 0px; fill: rgb(31, 83, 112);"></path>
        <path d="M 5580 7443 C 5553 7433 5519 7397 5331 7180 C 5121 6937 5025 6833 4998 6819 C 4971 6804 4947 6821 4825 6940 C 4702 7059 4675 7073 4616 7045 C 4561 7019 4533 6961 4551 6913 C 4561 6885 4579 6865 4789 6639 C 4941 6476 4959 6461 5002 6460 C 5035 6460 5057 6485 5362 6860 C 5485 7011 5616 7172 5653 7218 C 5710 7289 5720 7306 5720 7340 C 5720 7392 5680 7439 5630 7445 C 5611 7447 5588 7447 5580 7443 Z" style="stroke-width: 0px; fill: rgb(31, 83, 112);"></path>
        <path d="M 3584.99 5902.32 C 3567.99 5885.32 3559.99 5862.32 3554.99 5820.32 C 3541.99 5708.32 3531.99 5685.32 3470.99 5625.32 C 3376.99 5533.32 3292.99 5524.32 3158.99 5592.32 C 3068.99 5637.32 3060.99 5633.32 2957.98 5501.32 C 2829.98 5337.32 2836.98 5363.32 2909.98 5298.32 C 3075.99 5150.32 3051.99 4975.32 2852.98 4876.32 C 2801.98 4852.32 2789.98 4841.32 2789.98 4822.32 C 2789.98 4795.32 2861.98 4539.32 2878.98 4509.32 C 2887.98 4491.32 2896.98 4489.32 2957.98 4494.32 C 3094.99 4503.32 3193.99 4440.32 3229.99 4319.32 C 3240.99 4283.32 3239.99 4266.32 3221.99 4193.32 C 3209.99 4147.32 3197.99 4102.32 3194.99 4093.32 C 3186.99 4073.32 3209.99 4061.32 3374.99 4000.32 L 3502.99 3953.32 L 3523.99 3978.32 C 3535.99 3992.32 3557.99 4020.32 3573.99 4041.32 C 3631.99 4117.32 3756.99 4146.32 3862.99 4110.32 C 3913.99 4093.32 3980.99 4032.32 3999.99 3986.32 C 4006.99 3970.32 4018.99 3956.32 4027.99 3956.32 C 4035.99 3956.32 4102.99 3979.32 4176.99 4008.32 C 4325.99 4066.32 4320.99 4060.32 4294.99 4156.32 C 4261.99 4279.32 4281.99 4362.32 4361.99 4430.32 C 4412.99 4474.32 4481.99 4496.32 4570.99 4496.32 C 4633.99 4496.32 4637.99 4497.32 4648.99 4524.32 C 4668.99 4575.32 4739.99 4810.32 4739.99 4828.32 C 4739.99 4839.32 4720.99 4855.32 4687.99 4872.32 C 4566.99 4932.32 4519.99 4998.32 4519.99 5106.32 C 4519.99 5185.32 4537.99 5224.32 4604.99 5295.32 C 4634.99 5327.32 4659.99 5356.32 4659.99 5359.32 C 4659.99 5368.32 4459.99 5630.32 4449.99 5634.32 C 4445.99 5635.32 4413.99 5620.32 4378.99 5599.32 C 4326.99 5568.32 4304.99 5561.32 4249.99 5558.32 C 4161.99 5553.32 4111.99 5568.32 4057.99 5616.32 C 3997.99 5669.32 3971.99 5725.32 3963.99 5826.32 C 3958.99 5889.32 3952.99 5909.32 3938.99 5916.32 C 3928.99 5922.32 3850.99 5926.32 3764.99 5926.32 C 3613.99 5926.32 3607.99 5925.32 3584.99 5902.32 Z M 3952.99 5339.32 C 4031.99 5301.32 4122.99 5213.32 4161.99 5135.32 C 4176.99 5105.32 4196.99 5050.32 4206.99 5012.32 C 4248.99 4841.32 4160.99 4631.32 4002.99 4527.32 C 3808.99 4398.32 3546.99 4452.32 3409.99 4647.32 C 3227.99 4906.32 3344.99 5263.32 3644.99 5363.32 C 3670.99 5371.32 3719.99 5375.32 3785.99 5373.32 C 3873.99 5370.32 3894.99 5365.32 3952.99 5339.32 Z" style="stroke-width: 0px; fill: rgb(31, 83, 112); transform-origin: 3764.99px 4939.82px 0px;" transform="matrix(0.958435, 0.285312, -0.285312, 0.958435, 0, 0)"></path>
      </g>
    </g>
    <text style="fill: rgb(31, 83, 112); font-family: &quot;Arial&quot;, sans-serif; font-size: 115px; font-weight: 700; letter-spacing: -3px; white-space: pre;" x="180.987" y="679.904">AutoUpdater</text>
    <text style="fill: rgb(31, 83, 112); font-family: &quot;Arial&quot;, sans-serif; font-size: 68px; font-weight: 700; letter-spacing: -2px; white-space: pre;" x="195.419" y="758.316">for Docker Compose</text>
  </g>
</svg>